<svg width="146" height="32" viewBox="0 0 146 32" fill="none" xmlns="http://www.w3.org/2000/svg">
<g clip-path="url(#clip0_105_3196)">
<path fill-rule="evenodd" clip-rule="evenodd" d="M7.00117 18.2904L0.157951 7.53678C-0.265665 6.87109 0.212518 6 1.00156 6H19.0004C19.7894 6 20.2676 6.87109 19.844 7.53678L13.0008 18.2904V22.9989C13.0008 23.3777 12.7868 23.7239 12.448 23.8933L8.44829 25.8931C7.78343 26.2256 7.00117 25.7421 7.00117 24.9988V18.2904ZM2.8233 8L8.84528 17.4631C8.94739 17.6236 9.00162 17.8098 9.00162 18V23.382L11.0016 22.382V18C11.0016 17.8098 11.0559 17.6236 11.158 17.4631L17.1799 8H2.8233Z" fill="#264065"/>
</g>
<defs>
<clipPath id="clip0_105_3196">
<rect width="146.002" height="32" rx="16" fill="white"/>
</clipPath>
</defs>
</svg>
