<svg width="10" height="10" viewBox="0 0 10 10" fill="none" xmlns="http://www.w3.org/2000/svg">
<path fill-rule="evenodd" clip-rule="evenodd" d="M8.09203 8.97744C8.33363 9.21904 8.73432 9.21904 8.97592 8.97744C9.21751 8.73585 9.21751 8.33515 8.97592 8.09356L5.88236 5L8.97592 1.90644C9.21751 1.66485 9.21751 1.26415 8.97592 1.02256C8.73432 0.780962 8.33363 0.780962 8.09203 1.02256L4.99847 4.11612L1.90485 1.02249C1.66325 0.780897 1.26256 0.780897 1.02096 1.02249C0.77937 1.26409 0.77937 1.66478 1.02096 1.90638L4.11459 5L1.02096 8.09362C0.77937 8.33522 0.77937 8.73591 1.02096 8.97751C1.26256 9.2191 1.66325 9.2191 1.90485 8.97751L4.99847 5.88388L8.09203 8.97744Z" fill="#264065"/>
</svg>
