<svg width="21" height="20" viewBox="0 0 21 20" fill="none" xmlns="http://www.w3.org/2000/svg">
<path fill-rule="evenodd" clip-rule="evenodd" d="M7.50117 12.2904L0.657951 1.53678C0.234335 0.871094 0.712518 0 1.50156 0H19.5004C20.2894 0 20.7676 0.871094 20.344 1.53678L13.5008 12.2904V16.9989C13.5008 17.3777 13.2868 17.7239 12.948 17.8933L8.94829 19.8931C8.28343 20.2256 7.50117 19.7421 7.50117 18.9988V12.2904ZM3.3233 2L9.34528 11.4631C9.44739 11.6236 9.50162 11.8098 9.50162 12V17.382L11.5016 16.382V12C11.5016 11.8098 11.5559 11.6236 11.658 11.4631L17.6799 2H3.3233Z" fill="#264065"/>
</svg>
