<svg width="46" height="45" viewBox="0 0 46 45" fill="none" xmlns="http://www.w3.org/2000/svg">
<path fill-rule="evenodd" clip-rule="evenodd" d="M45.7141 22.5C45.7141 34.9264 35.6405 45 23.2141 45C10.7877 45 0.714111 34.9264 0.714111 22.5C0.714111 10.0736 10.7877 0 23.2141 0C35.6405 0 45.7141 10.0736 45.7141 22.5ZM3.52661 22.5C3.52661 11.625 12.3445 2.8125 23.2141 2.8125C34.0891 2.8125 42.9016 11.625 42.9016 22.5C42.9016 33.375 34.0891 42.1875 23.2141 42.1875C12.3391 42.1875 3.52661 33.375 3.52661 22.5ZM14.7177 16.1036C15.0712 19.0286 13.582 21.7607 11.2516 22.8214L11.257 22.8268V25.6714H19.1373L16.1695 9.54107L14.0695 9.83572L14.7177 16.1036ZM21.1034 35.9571C22.2713 35.9571 23.2141 34.8964 23.2141 33.5839V31.2054H11.2516V32.7911C11.2516 34.0982 12.1945 35.1643 13.3623 35.1643L21.1034 35.9571ZM11.2516 29.625H23.2141V27.2518H11.2516V29.625ZM20.7927 25.6661H23.2141V17.7536L19.6998 9.04286L17.782 9.31072L20.7927 25.6661ZM26.7368 9.03793L23.6963 16.5589L24.1034 17.5714V25.6607H25.6409L28.6516 9.30536L26.7368 9.03793ZM33.0659 35.1643C34.2337 35.1643 35.1766 34.1036 35.1766 32.7911V32.7857V31.2H24.098V33.5786C24.098 34.1411 23.9695 34.6714 23.7391 35.1321C24.1248 35.6357 24.6873 35.9571 25.3248 35.9571L33.0659 35.1643ZM24.098 29.625H35.1766V27.2518H24.098V29.625ZM27.2963 25.6661H35.1766L35.182 25.6607V22.8161C32.8516 21.7554 31.3623 19.0286 31.7159 16.0982L32.3695 9.83036L30.2695 9.53572L27.2963 25.6661Z" fill="#264065"/>
</svg>
