<svg width="20" height="20" viewBox="0 0 20 20" fill="none" xmlns="http://www.w3.org/2000/svg">
<path fill-rule="evenodd" clip-rule="evenodd" d="M7.00117 12.2904L0.157951 1.53678C-0.265665 0.871094 0.212518 0 1.00156 0H19.0004C19.7894 0 20.2676 0.871094 19.844 1.53678L13.0008 12.2904V16.9989C13.0008 17.3777 12.7868 17.7239 12.448 17.8933L8.44829 19.8931C7.78343 20.2256 7.00117 19.7421 7.00117 18.9988V12.2904ZM2.8233 2L8.84528 11.4631C8.94739 11.6236 9.00162 11.8098 9.00162 12V17.382L11.0016 16.382V12C11.0016 11.8098 11.0559 11.6236 11.158 11.4631L17.1799 2H2.8233Z" fill="#264065"/>
</svg>
