<svg width="46" height="45" viewBox="0 0 46 45" fill="none" xmlns="http://www.w3.org/2000/svg">
<path fill-rule="evenodd" clip-rule="evenodd" d="M45.1428 22.5C45.1428 34.9264 35.0692 45 22.6428 45C10.2164 45 0.142822 34.9264 0.142822 22.5C0.142822 10.0736 10.2164 0 22.6428 0C35.0692 0 45.1428 10.0736 45.1428 22.5ZM2.95532 22.5C2.95532 11.625 11.7678 2.8125 22.6428 2.8125C33.5178 2.8125 42.3303 11.625 42.3303 22.5C42.3303 33.375 33.5178 42.1875 22.6428 42.1875C11.7678 42.1875 2.95532 33.375 2.95532 22.5ZM9.06782 22.9071L14.6232 26.1482V26.1536L15.7107 30.0964L17.5 29.4214C17.5107 29.2286 17.5482 29.0357 17.6339 28.8482C17.875 28.3286 18.3732 27.9803 18.9303 27.9321L21.7803 22.9071L20.2375 17.0357C20.0714 16.4036 20.1571 15.7446 20.4893 15.1768C20.7732 14.6946 21.2071 14.3357 21.7214 14.1375L21.1857 12.7125C20.9178 12.0107 20.1357 11.6571 19.4339 11.9196C18.7321 12.1821 18.3785 12.9643 18.641 13.6661L17.9232 11.7589C17.6607 11.0571 16.8732 10.7036 16.1714 10.9661C15.4705 11.2282 15.1169 12.0087 15.3775 12.7098L15.1428 12.0803C14.875 11.3786 14.0928 11.0196 13.391 11.2875C12.6892 11.5553 12.3357 12.3375 12.5982 13.0393L13.075 14.3036C12.8071 13.6071 12.0303 13.2536 11.3285 13.5161C10.6267 13.7839 10.2732 14.5661 10.5357 15.2679L12.8821 21.5036L10.6482 20.2018C9.90354 19.7625 8.94461 20.0143 8.50532 20.7643C8.06604 21.5089 8.31782 22.4732 9.06782 22.9071ZM15.9678 33.5464C16.0964 33.9 16.4875 34.0768 16.841 33.9428V33.9321L21.3571 32.2339L18.4214 30.9054C18.175 30.7929 17.9767 30.6214 17.8267 30.4232L16 31.1143L16.4232 32.6464L16.3643 32.6678C16.0107 32.8018 15.8339 33.1929 15.9678 33.5464ZM30.8232 34.8161C30.9785 34.4732 30.8285 34.0714 30.4857 33.9161L30.475 33.9107L30.4214 33.8839L30.941 32.3839L20.1785 27.5089L19.3964 28.8911L19.3428 28.8643C19 28.7089 18.5982 28.8589 18.4428 29.2018C18.2875 29.5446 18.4375 29.9464 18.7803 30.1018L29.9232 35.1536C30.266 35.3089 30.6678 35.1589 30.8232 34.8161ZM31.3 31.3821L32.6714 27.45L32.666 27.4661L36.8714 18.1821C37.1821 17.4964 36.8821 16.6929 36.1964 16.3821C35.5107 16.0714 34.7071 16.3768 34.3964 17.0571L35.2375 15.2036C35.5482 14.5178 35.2482 13.7143 34.5625 13.4036C33.8821 13.0982 33.0785 13.3982 32.7678 14.0786L33.0464 13.4625C33.3571 12.7768 33.0571 11.9732 32.3714 11.6625C31.6857 11.3518 30.8821 11.6518 30.5714 12.3375L30.0142 13.5643C30.3196 12.8786 30.0143 12.0804 29.3339 11.7696C28.6482 11.4589 27.8446 11.7589 27.5339 12.4446L24.7857 18.5143L24.1268 16.0125C23.9071 15.1714 23.0446 14.6732 22.2089 14.8928C21.3732 15.1125 20.875 15.9696 21.0946 16.8054L22.7285 23.0304L20.7089 26.5875L31.3 31.3821Z" fill="#264065"/>
</svg>
