<svg width="46" height="45" viewBox="0 0 46 45" fill="none" xmlns="http://www.w3.org/2000/svg">
<path fill-rule="evenodd" clip-rule="evenodd" d="M45.4285 22.5C45.4285 34.9264 35.3549 45 22.9285 45C10.5021 45 0.428467 34.9264 0.428467 22.5C0.428467 10.0736 10.5021 0 22.9285 0C35.3549 0 45.4285 10.0736 45.4285 22.5ZM3.24097 22.5C3.24097 11.625 12.0535 2.8125 22.9285 2.8125C33.8035 2.8125 42.616 11.625 42.616 22.5C42.616 33.375 33.8035 42.1875 22.9285 42.1875C12.0535 42.1875 3.24097 33.375 3.24097 22.5ZM34.4825 27.1547C34.9241 27.0635 35.2051 27.0054 35.3302 27.0054H35.3356C37.8802 27.0054 39.1338 26.5339 36.407 24.2679C35.657 20.8286 33.9963 18.0696 31.6285 16.1786C31.8802 15.7071 31.7195 15.1232 31.2535 14.85L29.5285 13.8589C29.057 13.5857 28.4463 13.7464 28.1731 14.2232L28.157 14.2446C27.1499 13.875 26.0678 13.6179 24.9213 13.4786V13.35C24.9213 12.7982 24.4767 12.3536 23.9303 12.3536H21.9374C21.3856 12.3536 20.941 12.7982 20.941 13.35V13.4786C19.7945 13.6179 18.7124 13.875 17.7053 14.2446L17.6892 14.2232C17.416 13.7464 16.8106 13.5857 16.3338 13.8589L14.6088 14.85C14.1428 15.1179 13.982 15.7071 14.2338 16.1786C11.8606 18.0696 10.2052 20.8286 9.45525 24.2679C6.73382 26.5339 7.98739 27.0054 10.5267 27.0054C10.6519 27.0054 10.9329 27.0635 11.3744 27.1547C12.9926 27.4893 16.7669 28.2696 22.9285 28.2696C29.0901 28.2696 32.8643 27.4893 34.4825 27.1547Z" fill="#264065"/>
</svg>
