<svg width="46" height="45" viewBox="0 0 46 45" fill="none" xmlns="http://www.w3.org/2000/svg">
<path fill-rule="evenodd" clip-rule="evenodd" d="M45.8569 22.5C45.8569 34.9264 35.7833 45 23.3569 45C10.9305 45 0.856934 34.9264 0.856934 22.5C0.856934 10.0736 10.9305 0 23.3569 0C35.7833 0 45.8569 10.0736 45.8569 22.5ZM3.66943 22.5C3.66943 11.625 12.4819 2.8125 23.3569 2.8125C34.2319 2.8125 43.0444 11.625 43.0444 22.5C43.0444 33.375 34.2319 42.1875 23.3569 42.1875C12.4819 42.1875 3.66943 33.375 3.66943 22.5Z" fill="#264065"/>
<path d="M24.1061 6.94999C23.5012 7.01591 22.5821 7.17103 21.9345 7.3145C21.5816 7.39206 21.2908 7.46186 21.2869 7.46574C21.283 7.46962 21.2947 7.59371 21.3141 7.74107C21.3761 8.22579 21.3761 8.22579 21.19 8.22579C20.9302 8.22579 20.9108 8.25294 20.9418 8.57868C20.9573 8.73767 20.9806 8.9238 20.9922 8.99748L21.0155 9.12545L21.4459 9.0983C21.6825 9.08667 21.9074 9.0634 21.9423 9.05565C21.9927 9.04014 22.0121 9.07891 22.0392 9.23791L22.0702 9.44343L22.4774 9.4318C23.0203 9.42016 23.6059 9.48609 23.8308 9.58691C24.0751 9.69549 24.1759 9.79631 24.3039 10.0678C24.4008 10.2655 24.4163 10.347 24.4163 10.6107C24.4163 10.9558 24.3349 11.1846 24.1526 11.3823C24.0324 11.5103 23.6253 11.7158 23.4973 11.7158C23.443 11.7158 23.4081 11.7391 23.4081 11.774C23.4081 11.8554 23.5438 11.8477 23.92 11.7507C24.3349 11.646 24.5443 11.5375 24.9011 11.2311C25.2656 10.9248 25.3897 10.886 25.9093 10.917C26.4444 10.948 28.0498 11.1807 28.6819 11.3203C29.5583 11.5142 30.7255 11.933 31.5244 12.344C31.9936 12.5845 32.362 12.8714 32.6257 13.1933C32.7343 13.329 32.87 13.4841 32.9282 13.5384L33.0329 13.6354L33.0057 13.519C32.9282 13.1778 32.8894 13.0653 32.7498 12.7977C32.2999 11.9291 31.1327 11.0411 29.5544 10.3664C28.6858 9.99408 27.6155 9.6412 26.9253 9.5016C26.8128 9.47833 26.3591 9.44731 25.9093 9.4318C25.0251 9.40465 24.8778 9.36975 24.7459 9.1681C24.6568 9.03626 24.6645 8.8191 24.7537 8.69501C24.8739 8.53602 25.1298 8.35764 25.3742 8.26069C25.568 8.18314 25.6727 8.1715 26.1032 8.16763C26.712 8.16763 26.8438 8.20253 27.9451 8.67174C29.155 9.18362 29.3567 9.22239 30.6053 9.16423C31.2335 9.1332 31.4158 9.11382 31.5554 9.05177L31.726 8.97809L31.4352 8.90829C30.3649 8.64848 29.5893 8.38478 28.1429 7.77984C27.0106 7.30287 26.5375 7.14 25.9675 7.02367C25.4944 6.92672 24.618 6.89182 24.1061 6.94999Z" fill="#264065"/>
<path d="M17.4478 10.1686C17.1919 10.2656 16.8778 10.5486 16.7575 10.7852C16.6877 10.9209 16.2806 12.1618 16.2185 12.4294C16.2146 12.4449 16.075 12.5031 15.9044 12.5573C15.474 12.6931 15.3421 12.8288 15.2064 13.2864C15.1172 13.585 14.3029 15.9 11.697 23.2524C11.4255 24.0202 11.0533 25.0672 10.871 25.5791C10.6887 26.091 10.5491 26.5214 10.5647 26.533C10.5996 26.5602 14.1051 27.3551 14.1167 27.3357C14.1245 27.328 14.8574 24.408 15.7454 20.8481C16.6334 17.2844 17.4129 14.1744 17.4749 13.9301C17.6456 13.2786 17.6378 13.2088 17.3082 12.7474L17.1608 12.5418L17.3159 11.9873C17.4749 11.4018 17.5409 11.2777 17.7503 11.1536C17.8782 11.0799 17.9713 11.076 20.6354 11.0566C22.6635 11.0411 23.4158 11.0256 23.4933 10.9907C23.8268 10.8434 23.8229 10.3237 23.4856 10.157C23.3615 10.0911 23.1366 10.0872 20.4996 10.0911C17.7464 10.0911 17.6417 10.0949 17.4478 10.1686Z" fill="#264065"/>
<path d="M22.1166 12.8908L22.0545 13.0925L21.531 13.2592C20.5383 13.5811 19.5184 14.1628 18.8553 14.7832C18.2659 15.3377 17.9479 15.8419 17.7812 16.4817C17.7075 16.7648 17.7036 16.9083 17.7036 20.6155C17.7075 22.7289 17.7191 26.1918 17.7308 28.3129C17.7424 30.4341 17.7501 33.2416 17.7501 34.5446L17.7463 36.9217H23.3924H29.0385L29.0113 27.1612C28.9842 16.885 28.9842 16.854 28.8136 16.1753C28.5227 15.0314 27.5572 14.0968 26.0371 13.5074C25.6415 13.3523 24.8 13.1119 24.6488 13.1119C24.5984 13.1119 24.5712 13.0731 24.5557 12.9645C24.4976 12.6582 24.6217 12.6853 23.3342 12.6853H22.1825L22.1166 12.8908Z" fill="#264065"/>
</svg>
