<svg width="46" height="45" viewBox="0 0 46 45" fill="none" xmlns="http://www.w3.org/2000/svg">
<path fill-rule="evenodd" clip-rule="evenodd" d="M45.5713 22.5C45.5713 34.9264 35.4977 45 23.0713 45C10.6449 45 0.571289 34.9264 0.571289 22.5C0.571289 10.0736 10.6449 0 23.0713 0C35.4977 0 45.5713 10.0736 45.5713 22.5ZM3.38379 22.5C3.38379 11.625 12.1963 2.8125 23.0713 2.8125C33.9463 2.8125 42.7588 11.625 42.7588 22.5C42.7588 33.375 33.9463 42.1875 23.0713 42.1875C12.1963 42.1875 3.38379 33.375 3.38379 22.5Z" fill="#264065"/>
<path d="M18.042 10.4449V11.5148H21.7245H25.4069V10.4449V9.37497H21.7245H18.042V10.4449Z" fill="#264065"/>
<path d="M18.5395 12.8982L18.5346 13.6297L17.1213 15.1226C15.6433 16.6752 15.3447 17.0484 15.1158 17.6157L14.9815 17.9591L14.9665 26.2447C14.9566 31.8977 14.9665 34.5849 15.0014 34.7093C15.076 34.9582 15.4194 35.3314 15.7229 35.4906L15.9767 35.625H22.3713H28.7658L29.0495 35.4906C29.4078 35.3214 29.7611 35.0029 29.9253 34.6795L30.0597 34.4307L30.0895 31.221C30.1194 28.3048 30.1293 27.9515 30.2239 27.3643C30.3981 26.2745 30.6767 25.2195 31.035 24.3138L31.1793 23.9506V21.552C31.1793 18.8698 31.1147 17.1131 31.0052 16.6752C30.821 15.9586 30.1144 15.2769 29.0047 14.7494C28.1488 14.3413 26.7952 13.9432 25.5561 13.7342L24.8843 13.6198L24.8694 12.8883L24.8545 12.1617H21.6995L18.5395 12.1667V12.8982ZM26.0488 15.0778C27.0739 15.4859 28.2533 16.1229 28.9748 16.6553C29.6665 17.1629 30.0945 18.193 30.0995 19.3525C30.1045 20.2333 29.9203 20.8454 29.562 21.1638L29.368 21.333L28.8455 21.3032C26.7753 21.1887 25.3272 19.8053 24.9341 17.566C24.7947 16.7499 24.8545 15.7347 25.0883 15.033C25.168 14.7992 25.1779 14.7892 25.3222 14.8191C25.4068 14.834 25.7353 14.9534 26.0488 15.0778Z" fill="#264065"/>
</svg>
