<svg width="46" height="45" viewBox="0 0 46 45" fill="none" xmlns="http://www.w3.org/2000/svg">
<path fill-rule="evenodd" clip-rule="evenodd" d="M45.2856 22.5C45.2856 34.9264 35.2121 45 22.7856 45C10.3592 45 0.285645 34.9264 0.285645 22.5C0.285645 10.0736 10.3592 0 22.7856 0C35.2121 0 45.2856 10.0736 45.2856 22.5ZM3.09814 22.5C3.09814 11.625 11.9106 2.8125 22.7856 2.8125C33.6606 2.8125 42.4731 11.625 42.4731 22.5C42.4731 33.375 33.6606 42.1875 22.7856 42.1875C11.9106 42.1875 3.09814 33.375 3.09814 22.5Z" fill="#264065"/>
<path d="M10.0918 10.921C8.99915 11.4673 8.47045 13.353 8.84054 15.3796C8.99915 16.2079 9.15776 16.5251 9.65121 16.9833L10.268 17.5649H17.9341C25.4592 17.5649 25.6002 17.5649 25.9703 17.1948C26.3051 16.86 26.3227 16.6661 26.2699 14.2341C26.2346 12.1193 26.1641 11.5554 25.8998 11.1677L25.6002 10.6919H18.0575C12.4004 10.6919 10.4266 10.7447 10.0918 10.921Z" fill="#264065"/>
<path d="M26.5518 11.855C26.6046 12.0136 26.6575 13.1591 26.6575 14.4104V16.6838H27.521C28.1202 16.6838 28.5079 16.578 28.8428 16.3137C29.2834 15.9612 29.301 15.8907 29.301 14.146C29.301 11.8374 29.1071 11.573 27.521 11.573C26.6046 11.573 26.4636 11.6083 26.5518 11.855Z" fill="#264065"/>
<path d="M29.4771 14.0403C29.4771 15.2386 29.4947 15.2739 29.9176 15.2739C30.3406 15.2739 30.3582 15.2386 30.3582 14.0403C30.3582 12.8419 30.3406 12.8066 29.9176 12.8066C29.4947 12.8066 29.4771 12.8419 29.4771 14.0403Z" fill="#264065"/>
<path d="M30.7109 14.1283V14.5689H33.6011C35.9098 14.5689 36.5266 14.5161 36.7028 14.3046C37.1434 13.7759 36.7028 13.6878 33.6893 13.6878H30.7109V14.1283Z" fill="#264065"/>
<path d="M11.0083 18.4813C11.2021 19.3096 11.0964 26.7818 10.8849 27.2929C10.7615 27.5925 10.9906 27.6101 14.2157 27.6101H17.6698L17.3702 27.1343C17.0178 26.6056 16.9825 25.4248 17.2116 22.376C17.3526 20.6842 17.4231 20.3846 17.6875 20.2965C17.9694 20.2084 18.0223 19.9969 18.0223 18.9571V17.7411H14.4272H10.832L11.0083 18.4813Z" fill="#264065"/>
<path d="M18.1983 18.8161C18.1983 19.9969 18.1631 19.9792 19.5729 19.3977C20.084 19.1862 20.1369 19.0981 20.1369 18.4636V17.7411H19.1676H18.1983V18.8161Z" fill="#264065"/>
<path d="M9.79238 28.174C9.5809 28.456 9.26368 30.3417 9.10508 32.3507C8.99934 33.6725 9.01696 33.8487 9.29893 34.0602C9.56328 34.254 10.6559 34.3069 14.3215 34.3069C20.0138 34.3069 19.7142 34.4303 19.4323 32.1745C19.0974 29.3195 18.9388 28.3326 18.8155 28.1564C18.6392 27.8568 10.0215 27.8921 9.79238 28.174Z" fill="#264065"/>
</svg>
