<svg width="45" height="45" viewBox="0 0 45 45" fill="none" xmlns="http://www.w3.org/2000/svg">
<path fill-rule="evenodd" clip-rule="evenodd" d="M45 22.5C45 34.9264 34.9264 45 22.5 45C10.0736 45 0 34.9264 0 22.5C0 10.0736 10.0736 0 22.5 0C34.9264 0 45 10.0736 45 22.5ZM2.8125 22.5C2.8125 11.625 11.625 2.8125 22.5 2.8125C33.375 2.8125 42.1875 11.625 42.1875 22.5C42.1875 33.375 33.375 42.1875 22.5 42.1875C11.625 42.1875 2.8125 33.375 2.8125 22.5ZM29.9411 9.74464H19.3125V11.1589C19.3125 11.55 19.3393 12.1875 19.3768 12.5732L19.4411 13.2857H21.9696V10.9821H29.9411V9.74464ZM12.5839 33.1232H14.2393L14.2553 33.1339C14.2178 32.8875 14.1964 32.6357 14.1964 32.4268C14.1964 31.9125 14.3839 31.1625 14.8071 30.7393C15.1339 30.4125 15.7446 30.0911 16.1786 29.9464L16.9607 29.6839C17.3893 29.5393 18.0482 29.3786 18.4661 29.3089L21.3214 28.8321C21.525 28.8 21.8946 28.6071 22.0393 28.4625L23.1643 27.3375C23.2446 27.2571 23.3411 26.9839 23.325 26.8714L22.7893 22.6071C22.7411 22.2161 22.6714 21.5679 22.6339 21.1714L22.125 15.5946L22.05 14.7911C22.0393 14.6625 22.0286 14.5125 22.0178 14.3571H19.5482L19.9714 18.9643C20.0036 19.3554 20.0732 19.9875 20.1214 20.3732L20.6518 24.6321C20.7 25.0178 20.5125 25.5643 20.2393 25.8375L19.1143 26.9625C18.8357 27.2357 18.3 27.5143 17.9143 27.5786L15.0589 28.0554C14.6732 28.1196 14.0571 28.275 13.6875 28.3982L12.9054 28.6554C12.5357 28.7786 12.075 29.0411 11.8768 29.2339C11.6839 29.4268 11.5232 29.9089 11.5232 30.2946C11.5232 30.6803 11.6036 31.1625 11.7 31.3554C11.7964 31.5482 11.7964 31.7089 11.7 31.7089C11.6036 31.7089 11.5232 31.95 11.5232 32.2393C11.5232 32.5286 11.6036 32.85 11.7 32.9464C11.7964 33.0429 12.1929 33.1232 12.5839 33.1232ZM32.6571 22.4893C32.7214 22.1036 32.8018 21.4714 32.8393 21.0857H32.85L33.2678 16.4786H23.0946L23.5125 21.0857C23.55 21.4714 23.6143 22.1089 23.6625 22.4946L24.1982 26.7589C24.2464 27.1446 24.0589 27.6857 23.7857 27.9643L22.6607 29.0839C22.3821 29.3571 21.8464 29.6357 21.4607 29.7L18.6053 30.1768C18.2196 30.2411 17.6036 30.3911 17.2339 30.5143L16.4518 30.7768C16.0875 30.9 15.6214 31.1625 15.4286 31.3554C15.2357 31.5482 15.075 32.0303 15.075 32.4161C15.075 32.8018 15.1554 33.2839 15.2518 33.4768C15.3482 33.675 15.3482 33.8304 15.2518 33.8304C15.1554 33.8304 15.075 34.0661 15.075 34.3607C15.075 34.6553 15.1554 34.9714 15.2518 35.0679C15.3482 35.1643 15.7446 35.2446 16.1357 35.2446H24.2839C24.6696 35.2446 25.1518 35.0893 25.3446 34.8911C25.5375 34.6982 26.0143 34.5375 26.4053 34.5375H27.1125C27.5036 34.5375 27.8196 34.6982 27.8196 34.8911C27.8196 35.0839 28.1357 35.2446 28.5268 35.2446H31.8911C32.2821 35.2446 32.6411 35.1643 32.6893 35.0679C32.7375 34.9714 32.775 34.65 32.775 34.3607C32.775 34.0714 32.6946 33.8304 32.5982 33.8304C32.5018 33.8304 32.5018 33.675 32.5982 33.4768C32.6946 33.2839 32.775 32.9678 32.775 32.7696V30.2893C32.775 29.8982 32.6732 29.2768 32.55 28.9071L32.2875 28.125C32.1643 27.7554 32.0625 27.1393 32.0625 26.7482C32.0625 26.3571 32.1161 25.725 32.1803 25.3393L32.6571 22.4893ZM33.4178 14.7053C33.45 14.3143 33.4821 13.6821 33.4821 13.2911H33.4875V11.8714H22.8589V13.2911C22.8589 13.6821 22.8857 14.3196 22.9232 14.7053L22.9875 15.4179H33.3536L33.4178 14.7053Z" fill="#264065"/>
</svg>
