<svg width="12" height="9" viewBox="0 0 12 9" fill="none" xmlns="http://www.w3.org/2000/svg">
<path fill-rule="evenodd" clip-rule="evenodd" d="M11.8541 0.647321C11.9007 0.693767 11.9376 0.748942 11.9629 0.809687C11.9881 0.870433 12.001 0.935554 12.001 1.00132C12.001 1.06709 11.9881 1.13221 11.9629 1.19295C11.9376 1.2537 11.9007 1.30888 11.8541 1.35532L4.85414 8.35532C4.8077 8.40188 4.75252 8.43883 4.69178 8.46403C4.63103 8.48924 4.56591 8.50221 4.50014 8.50221C4.43438 8.50221 4.36925 8.48924 4.30851 8.46403C4.24776 8.43883 4.19259 8.40188 4.14614 8.35532L0.646143 4.85532C0.552257 4.76143 0.499512 4.6341 0.499512 4.50132C0.499512 4.36855 0.552257 4.24121 0.646143 4.14732C0.74003 4.05343 0.867368 4.00069 1.00014 4.00069C1.13292 4.00069 1.26026 4.05343 1.35414 4.14732L4.50014 7.29432L11.1461 0.647321C11.1926 0.600758 11.2478 0.563815 11.3085 0.538609C11.3693 0.513402 11.4344 0.500427 11.5001 0.500427C11.5659 0.500427 11.631 0.513402 11.6918 0.538609C11.7525 0.563815 11.8077 0.600758 11.8541 0.647321Z" fill="white"/>
</svg>
