<svg width="46" height="46" viewBox="0 0 46 46" fill="none" xmlns="http://www.w3.org/2000/svg">
<path d="M23 45.833C17.0025 45.833 11.3756 43.5052 7.09802 39.235C2.82043 34.9574 0.5 29.3379 0.5 23.333C0.5 17.3281 2.82784 11.7086 7.09802 7.43104C11.3756 3.15344 16.9951 0.833008 23 0.833008C29.0049 0.833008 34.6244 3.16086 38.902 7.43104C43.1796 11.7086 45.5 17.3281 45.5 23.333C45.5 29.3379 43.1721 34.9574 38.902 39.235C34.6244 43.5126 29.0049 45.833 23 45.833ZM23 2.71605C11.598 2.71605 2.37562 11.9384 2.37562 23.3404C2.37562 34.7424 11.598 43.9648 23 43.9648C34.402 43.9648 43.6244 34.7424 43.6244 23.3404C43.6244 11.9384 34.402 2.71605 23 2.71605Z" fill="#264065"/>
<path d="M23.0002 42.0818C12.651 42.0818 4.25146 33.6822 4.25146 23.333C4.25146 12.9837 12.651 4.58423 23.0002 4.58423C33.3495 4.58423 41.749 12.9837 41.749 23.333C41.749 33.6822 33.3495 42.0818 23.0002 42.0818ZM23.0002 6.45985C13.7037 6.45985 6.12708 14.0364 6.12708 23.333C6.12708 32.6295 13.7037 40.2061 23.0002 40.2061C32.2968 40.2061 39.8734 32.6295 39.8734 23.333C39.8734 14.0364 32.2968 6.45985 23.0002 6.45985Z" fill="#264065"/>
<path d="M23.1557 36.4622H22.9333C17.8328 35.0388 15.1343 33.3856 13.8592 30.991C12.6582 28.6632 12.8806 26.0388 13.2587 22.295C13.4811 20.1228 13.7109 17.6467 13.7109 14.7184C13.7109 14.4218 13.8592 14.192 14.0075 13.9696C14.2299 13.8213 14.4597 13.7472 14.7562 13.7472C15.4309 13.8213 16.1055 13.8955 16.706 13.8955C19.108 13.8955 20.9836 13.0726 22.3328 11.4193C22.4811 11.1969 22.7851 11.1228 23.0816 11.1228C23.3781 11.1228 23.608 11.2711 23.8304 11.4193C25.2537 13.0726 27.0552 13.8955 29.4572 13.8955C30.0577 13.8955 30.7323 13.8213 31.407 13.7472C31.7035 13.6731 31.9333 13.7472 32.1557 13.9696C32.3781 14.1179 32.4523 14.4218 32.4523 14.7184C32.4523 17.6393 32.6747 20.1154 32.9045 22.295C33.2826 25.9721 33.505 28.6706 32.304 30.991C31.1771 33.3188 28.4786 34.9646 23.3781 36.4622H23.1557ZM15.5791 15.7637C15.505 18.3139 15.2826 20.4861 15.1269 22.4358C14.8304 25.809 14.5264 28.2851 15.505 30.0124C16.4762 31.8139 18.7299 33.1632 23.1557 34.4383C27.5075 33.1632 29.8279 31.8139 30.8065 30.0124C31.7776 28.2109 31.4811 25.8164 31.1846 22.4358C30.9622 20.4861 30.8065 18.3139 30.7323 15.7637C30.3542 15.7637 29.9094 15.8378 29.5313 15.8378C26.9811 15.8378 24.8089 15.0149 23.1557 13.4358C21.5025 15.0075 19.3304 15.8378 16.7801 15.8378C16.402 15.8378 15.9572 15.8378 15.5791 15.7637Z" fill="#264065"/>
<path d="M23.1556 30.8356H22.9332C20.1606 30.0127 18.6556 29.1082 17.981 27.759C17.3064 26.4839 17.4547 24.9122 17.6029 23.0366C17.6771 21.9097 17.8253 20.6346 17.8253 19.1371C17.8253 18.8405 17.9736 18.6107 18.1219 18.3883C18.3443 18.24 18.5741 18.1659 18.8706 18.1659C19.1672 18.24 19.5453 18.24 19.8492 18.24C20.9761 18.24 21.799 17.862 22.4736 17.1132C22.6219 16.8908 22.9258 16.8167 23.2224 16.8167C23.5189 16.8167 23.7487 16.9649 23.9711 17.1132C24.6458 17.862 25.4687 18.24 26.5955 18.24C26.892 18.24 27.196 18.24 27.5667 18.1659C27.8632 18.0918 28.093 18.1659 28.3154 18.3883C28.5379 18.5366 28.612 18.8405 28.612 19.1371C28.612 20.6346 28.7603 21.9097 28.8344 23.0366C29.0568 24.9863 29.2125 26.4839 28.4563 27.759C27.7817 29.1082 26.2841 30.0053 23.5041 30.8356H23.126H23.1556ZM19.6268 20.1082C19.5527 21.2351 19.4785 22.2804 19.4044 23.1849C19.2561 24.8381 19.1079 26.1132 19.5527 26.8619C20.0049 27.6848 21.0502 28.2853 23.1556 28.8858C25.1795 28.2853 26.3064 27.6107 26.7586 26.8619C27.2108 26.039 27.0551 24.8381 26.9069 23.1849C26.8327 22.2878 26.6845 21.3092 26.6845 20.1082C25.3352 20.1082 24.1342 19.8117 23.1631 18.9814C22.1919 19.8043 21.065 20.1824 19.6416 20.1082H19.6268Z" fill="#264065"/>
</svg>
