<svg width="54" height="46" viewBox="0 0 54 46" fill="none" xmlns="http://www.w3.org/2000/svg">
<path d="M26.0828 0.205692C26.0443 0.237745 25.8584 0.314672 25.6725 0.372368C25.4802 0.436474 25.2879 0.513401 25.2558 0.539043C25.2174 0.571096 25.0635 0.692898 24.9161 0.814699C24.7622 0.936501 24.6212 1.04548 24.5891 1.0583C24.5635 1.06471 24.4417 1.20575 24.3199 1.36601C24.1981 1.52628 24.0763 1.66731 24.0506 1.68654C24.025 1.70577 23.9609 1.82757 23.9032 1.9622C23.8519 2.09041 23.7814 2.19939 23.7493 2.19939C23.7237 2.19939 23.666 2.32119 23.6211 2.46863C23.5763 2.62249 23.4993 2.78916 23.4545 2.84045C23.4096 2.89173 23.3391 3.04559 23.2942 3.1738C23.2557 3.30842 23.198 3.4174 23.1724 3.4174C23.1468 3.4174 23.0762 3.55843 23.0121 3.73793C22.948 3.91102 22.8711 4.05846 22.839 4.05846C22.807 4.05846 22.7813 4.09051 22.7813 4.13539C22.7813 4.23796 22.3198 5.1739 22.2557 5.19955C22.23 5.21237 22.2044 5.25083 22.2044 5.28288C22.2044 5.32135 22.089 5.59059 21.948 5.88548C21.8069 6.18037 21.6915 6.45602 21.6915 6.48808C21.6915 6.52654 21.6659 6.55859 21.6339 6.55859C21.6018 6.55859 21.5377 6.66116 21.4992 6.78296C21.4608 6.90476 21.3967 7.00733 21.3646 7.00733C21.3326 7.00733 21.3069 7.03939 21.3069 7.07785C21.3069 7.15478 21.0761 7.66121 20.7428 8.34074C20.6082 8.59716 20.4799 8.87282 20.4415 8.94975C20.1466 9.57798 19.9607 9.86005 19.8132 9.89851C19.7235 9.92415 19.4094 9.96262 19.1145 9.98826C18.826 10.0139 18.5568 10.0588 18.5183 10.0844C18.4862 10.1101 17.967 10.187 17.3644 10.2511C16.7682 10.3152 16.2618 10.3857 16.2425 10.4114C16.2105 10.4498 15.7105 10.5203 13.5501 10.796C12.9667 10.8729 12.4346 10.9563 12.3641 10.9819C12.2936 11.014 11.8897 11.0845 11.4666 11.1422C11.0435 11.1999 10.6846 11.2704 10.6653 11.296C10.6461 11.3281 10.5628 11.3729 10.473 11.3986C9.94733 11.5524 9.02421 12.341 8.896 12.7256C8.87676 12.7897 8.8383 12.841 8.80625 12.841C8.77419 12.841 8.70368 13.0077 8.64598 13.2064C8.58829 13.4115 8.51136 13.591 8.48572 13.6102C8.45367 13.6295 8.39597 13.9115 8.3511 14.2321C8.2934 14.6808 8.2934 14.9372 8.35751 15.3668C8.40238 15.668 8.45367 15.9181 8.47931 15.9181C8.50495 15.9181 8.57547 16.0591 8.63957 16.2322C8.69727 16.4053 8.79343 16.5655 8.84471 16.5848C8.896 16.604 8.93446 16.6489 8.93446 16.6937C8.93446 16.7322 9.03062 16.8668 9.14601 16.9886C9.52423 17.3989 12.3705 20.2003 14.2873 22.0402C14.9091 22.6364 15.454 23.2069 15.4989 23.3095C15.5822 23.4954 15.5246 24.207 15.4092 24.4762C15.3258 24.6685 15.1976 25.7006 15.2425 25.8417C15.2681 25.9122 15.3899 25.9955 15.5374 26.0404C15.672 26.0789 15.8259 26.1494 15.8707 26.1942C15.9156 26.2391 16.0566 26.316 16.1784 26.3673C16.3002 26.4122 16.4477 26.4891 16.5054 26.5404C16.5567 26.5853 16.6913 26.6366 16.7938 26.6622L16.9926 26.7007L17.0951 26.034C17.1528 25.675 17.2426 25.0852 17.2939 24.7326C17.3516 24.38 17.4349 24.0211 17.4734 23.9377C17.5952 23.7133 17.5824 22.6492 17.4606 22.4953C17.3195 22.3287 14.8066 19.8606 12.5821 17.713C10.7294 15.9181 10.4794 15.6552 10.4025 15.4052C10.364 15.2834 10.3063 15.1552 10.2743 15.1231C10.1973 15.0398 10.1973 14.3988 10.2743 14.3475C10.3063 14.3282 10.3512 14.2257 10.3768 14.1167C10.4666 13.7128 10.7871 13.3282 11.1397 13.2064C11.2487 13.1679 11.3577 13.1166 11.3769 13.0846C11.3961 13.0589 11.8385 12.982 12.3705 12.9243C12.8962 12.8666 13.3385 12.7961 13.3578 12.7705C13.377 12.7512 13.8642 12.6807 14.4476 12.6166C15.0309 12.5525 15.5374 12.482 15.5694 12.4563C15.6079 12.4307 15.9797 12.373 16.4028 12.3345C16.8259 12.2897 17.2298 12.232 17.3003 12.1999C17.4413 12.1422 18.9799 11.9435 19.3132 11.9435C19.4222 11.9435 19.5119 11.9179 19.5119 11.8858C19.5119 11.8602 19.8645 11.796 20.2876 11.7512C21.1787 11.655 21.3518 11.5653 21.5377 11.0781C21.5954 10.9178 21.6659 10.7896 21.6851 10.7896C21.7108 10.7896 21.7685 10.6806 21.8133 10.5524C21.8646 10.4178 21.9416 10.2767 21.9864 10.2255C22.0377 10.1806 22.0762 10.0972 22.0762 10.0524C22.0762 10.0011 22.1659 9.78953 22.2685 9.58439C22.3775 9.37284 22.4608 9.17412 22.4608 9.13565C22.4608 9.1036 22.4993 9.03949 22.5442 9.00103C22.5954 8.96257 22.666 8.81512 22.7108 8.67409C22.7493 8.53306 22.807 8.41767 22.8326 8.41767C22.8647 8.41767 22.9352 8.27022 22.9993 8.09714C23.0634 7.91764 23.1403 7.77661 23.1724 7.77661C23.2044 7.77661 23.2301 7.74455 23.2301 7.70609C23.2301 7.62275 23.6852 6.66757 23.7429 6.6227C23.7686 6.60347 23.8391 6.45602 23.9032 6.28294C23.9673 6.11626 24.0442 5.98164 24.0699 5.98164C24.1019 5.98164 24.1276 5.94959 24.1276 5.91112C24.1276 5.82779 24.5827 4.87261 24.6404 4.82773C24.6661 4.8085 24.7366 4.66106 24.8007 4.48797C24.8648 4.32129 24.9353 4.18667 24.9609 4.18667C24.9866 4.18667 25.0571 4.02641 25.1212 3.83409C25.1917 3.64177 25.2622 3.48151 25.2879 3.48151C25.3135 3.48151 25.352 3.41099 25.3712 3.32765C25.4738 2.92378 25.9738 2.31478 26.3264 2.16734C26.6277 2.03912 27.5188 2.03912 27.8137 2.16092C28.006 2.24426 28.2047 2.41735 28.474 2.73788C28.5188 2.79557 28.5381 2.84045 28.5124 2.84045C28.4868 2.84045 28.5124 2.89173 28.5637 2.94943C28.6791 3.09046 29.3843 4.5072 29.3843 4.60977C29.3843 4.65465 29.4291 4.71875 29.4804 4.76363C29.5317 4.8085 29.5766 4.89825 29.5766 4.96235C29.5766 5.02005 29.615 5.11621 29.6599 5.16108C29.7048 5.20596 29.8009 5.37904 29.8651 5.55213C29.9292 5.71881 30.0061 5.85343 30.0317 5.85343C30.0638 5.85343 30.0894 5.88548 30.0894 5.92394C30.0894 6.00728 30.5446 6.96246 30.6023 7.00733C30.6279 7.02657 30.6984 7.17401 30.7625 7.34068C30.8266 7.51377 30.9036 7.64839 30.9292 7.64839C30.9613 7.64839 30.9869 7.68045 30.9869 7.71891C30.9869 7.82148 31.4485 8.76384 31.5126 8.78948C31.5382 8.8023 31.5639 8.84076 31.5639 8.87282C31.5639 8.91128 31.6793 9.18053 31.8203 9.47541C31.9613 9.7703 32.0767 10.0395 32.0767 10.078C32.0767 10.1101 32.1024 10.1485 32.128 10.1613C32.1536 10.1678 32.3139 10.4562 32.4806 10.7896C32.9293 11.6871 32.846 11.623 33.7883 11.7384C34.2371 11.7896 34.6217 11.8537 34.6409 11.8794C34.6602 11.8986 35.1474 11.9691 35.7308 12.0332C36.3141 12.0973 36.8206 12.1743 36.8526 12.1999C36.8911 12.2256 37.2821 12.2833 37.7373 12.3281C38.186 12.373 38.5514 12.4307 38.5514 12.4499C38.5514 12.4756 39.0514 12.5461 39.6604 12.6166C40.263 12.6807 40.7759 12.7512 40.7951 12.7769C40.8144 12.7961 41.2567 12.8666 41.7824 12.9243C42.3144 12.982 42.7568 13.0589 42.776 13.091C42.8016 13.123 42.885 13.1679 42.9747 13.1936C43.2247 13.2577 43.5068 13.5461 43.7119 13.9628C43.8722 14.2705 43.9043 14.418 43.9043 14.777C43.9043 15.0206 43.8722 15.2385 43.8337 15.2642C43.8017 15.2898 43.7312 15.3988 43.6863 15.5078C43.6158 15.6873 42.8914 16.4181 39.9489 19.2708C37.8398 21.3158 36.7821 22.3671 36.6411 22.553C36.5064 22.7261 36.4936 22.7902 36.5321 23.162C36.5513 23.3864 36.5962 23.6044 36.6218 23.6428C36.6539 23.6749 36.7116 23.9826 36.7564 24.3159C36.8654 25.2391 36.7436 25.1493 37.8591 25.1493H38.8207L38.7758 24.6493C38.7501 24.38 38.7117 24.1236 38.6796 24.0916C38.5835 23.9634 38.545 23.4249 38.6219 23.2774C38.6668 23.2005 38.8719 22.9761 39.0835 22.7774C39.2886 22.5851 39.8464 22.0466 40.3143 21.5914C40.7823 21.1299 41.6221 20.3221 42.1734 19.7965C43.5068 18.5144 45.0005 17.0143 45.1351 16.8155C45.1928 16.7258 45.2633 16.6425 45.2825 16.6232C45.3082 16.604 45.4236 16.386 45.5454 16.1424C45.7377 15.7386 45.7633 15.6232 45.7826 15.0206C45.8082 14.3667 45.7056 13.482 45.6031 13.482C45.5774 13.482 45.5326 13.3859 45.5133 13.2641C45.4043 12.6743 44.3402 11.5909 43.6799 11.3986C43.5901 11.3729 43.5068 11.3281 43.4876 11.296C43.4555 11.2447 42.2183 11.046 41.9234 11.046C41.8336 11.046 41.7567 11.0204 41.7567 10.9947C41.7567 10.9691 41.2759 10.8922 40.6861 10.828C40.09 10.7639 39.5835 10.687 39.5451 10.6614C39.513 10.6357 39.1348 10.578 38.7117 10.5332C38.2886 10.4883 37.9296 10.4306 37.9104 10.4049C37.8911 10.3857 37.4039 10.3152 36.8206 10.2511C36.2372 10.187 35.7372 10.1165 35.6987 10.0844C35.6666 10.0588 35.4038 10.0139 35.1217 9.99467C34.3332 9.92415 34.1602 9.86005 34.0576 9.61645C34.0127 9.50747 33.9358 9.37284 33.8909 9.32797C33.846 9.2831 33.7755 9.12924 33.7371 8.99462C33.6922 8.85359 33.6409 8.7382 33.6153 8.7382C33.5896 8.7382 33.5319 8.6228 33.487 8.48177C33.4422 8.34074 33.3781 8.22535 33.3524 8.22535C33.3268 8.22535 33.2563 8.0779 33.1922 7.90482C33.128 7.72532 33.0575 7.58429 33.0319 7.58429C33.0062 7.58429 32.9357 7.43684 32.8716 7.26376C32.8075 7.08426 32.737 6.94323 32.7178 6.94323C32.6921 6.94323 32.6344 6.82784 32.5896 6.6868C32.5447 6.54577 32.4806 6.43038 32.4549 6.43038C32.4293 6.43038 32.3588 6.28294 32.2947 6.10985C32.2306 5.93036 32.16 5.78932 32.1344 5.78932C32.1088 5.78932 32.0382 5.64188 31.9741 5.46879C31.91 5.2893 31.8395 5.14826 31.8203 5.14826C31.7946 5.14826 31.7369 5.03287 31.6921 4.89184C31.6472 4.7508 31.5703 4.60336 31.519 4.5649C31.4741 4.52643 31.4357 4.46233 31.4357 4.43027C31.4357 4.39822 31.3331 4.16744 31.2113 3.91102C31.0895 3.661 30.9869 3.41099 30.9869 3.37253C30.9869 3.32765 30.9613 3.28919 30.9356 3.28919C30.9036 3.28919 30.8395 3.1738 30.7946 3.03276C30.7497 2.89173 30.6856 2.77634 30.66 2.77634C30.6343 2.77634 30.5638 2.6289 30.5061 2.45581C30.4484 2.27632 30.3779 2.13528 30.3587 2.13528C30.333 2.13528 30.2753 2.05194 30.2369 1.95579C30.192 1.85963 30.1022 1.71218 30.0446 1.62885C29.8266 1.34037 29.1663 0.724951 28.9868 0.648024C28.8906 0.603149 28.8073 0.545454 28.8073 0.519812C28.8073 0.50058 28.6535 0.430063 28.474 0.372368C28.288 0.308262 28.1086 0.237745 28.0765 0.205692C28.038 0.173639 27.5893 0.147997 27.0764 0.147997C26.5636 0.147997 26.1149 0.173639 26.0828 0.205692Z" fill="#264065"/>
<path d="M7.76778 3.14177C7.66521 3.15459 7.58829 3.19305 7.58829 3.21869C7.58829 3.25075 7.49213 3.28921 7.38315 3.31485C7.15237 3.35973 6.51131 3.68026 6.29335 3.85334C5.99205 4.09694 5.49202 4.65466 5.37663 4.87904C5.30612 5.00725 5.22919 5.12905 5.20996 5.14828C5.14585 5.19957 4.95994 6.07782 4.95994 6.33424C4.95994 6.45604 4.9343 6.6099 4.89584 6.674C4.86378 6.7317 4.80609 7.42404 4.77404 8.21255C4.74198 9.04592 4.68429 9.67416 4.64582 9.72545C4.60736 9.77032 4.59454 9.8216 4.61377 9.84084C4.633 9.86007 4.55608 9.91776 4.45351 9.96264C4.34453 10.0139 4.25478 10.0716 4.25478 10.0908C4.25478 10.1101 4.13298 10.1806 3.98553 10.2511C3.83168 10.3152 3.67141 10.405 3.62654 10.4498C3.58167 10.4947 3.51756 10.5332 3.48551 10.5332C3.45345 10.5332 3.38935 10.5716 3.34447 10.6229C3.26114 10.6999 3.1201 10.7896 2.50469 11.123C2.38929 11.1871 2.25467 11.264 2.20339 11.3025C2.1521 11.3345 1.93414 11.4819 1.72259 11.6166C1.2418 11.9307 0.536632 12.6423 0.536632 12.8154C0.536632 12.8538 0.498169 12.9243 0.446884 12.9628C0.395599 13.0077 0.318672 13.1808 0.280208 13.3538C0.235334 13.5333 0.177639 13.6744 0.145586 13.6744C0.113533 13.6744 0.0878906 14.1039 0.0878906 14.636C0.0878906 15.1616 0.113533 15.5976 0.145586 15.5976C0.177639 15.5976 0.222513 15.7001 0.248156 15.8283C0.29303 16.0912 0.568685 16.6361 0.761003 16.8412C0.83152 16.9181 0.966142 17.0656 1.0623 17.1681C1.28026 17.4053 1.55592 17.6169 1.78029 17.7195C1.87004 17.7643 1.94696 17.822 1.94696 17.8477C1.94696 17.8733 2.10723 17.9502 2.29955 18.0079C2.49186 18.072 2.65213 18.1426 2.65213 18.1618C2.65213 18.1874 2.83804 18.2579 3.06882 18.3221C3.2996 18.3797 3.48551 18.4567 3.48551 18.4823C3.48551 18.508 3.63295 18.5657 3.80604 18.6105C3.98553 18.6554 4.12657 18.7067 4.12657 18.7323C4.12657 18.758 4.29965 18.8349 4.5112 18.899C4.72275 18.9631 4.89584 19.0336 4.89584 19.0593C4.89584 19.0849 4.97276 19.1234 5.07533 19.1426C5.35099 19.2067 5.4151 19.2772 5.45356 19.5657C5.47279 19.7067 5.51125 19.8285 5.5369 19.8285C5.56254 19.8285 5.62023 20.0657 5.66511 20.3542C5.70998 20.6491 5.76768 20.9119 5.79332 20.9504C5.81896 20.9825 5.88948 21.2902 5.94718 21.6235C6.00487 21.9569 6.0818 22.2902 6.10744 22.3607C6.13949 22.4312 6.2036 22.63 6.24847 22.8095C6.33822 23.1685 6.54336 23.5852 6.79978 23.9249C7.02416 24.2198 7.46008 24.6301 7.60752 24.675C7.66521 24.6942 7.7165 24.7326 7.7165 24.7647C7.7165 24.7968 7.81907 24.8545 7.94087 24.8929C8.06267 24.9314 8.16524 24.9891 8.16524 25.0211C8.16524 25.0788 8.92169 25.2775 9.15888 25.2775C9.24863 25.2775 9.31915 25.3032 9.31915 25.3417C9.31915 25.3801 9.49223 25.4058 9.70378 25.4058C9.91533 25.4058 10.0884 25.3801 10.0884 25.3417C10.0884 25.3032 10.1589 25.2775 10.2487 25.2775C10.4795 25.2775 11.2423 25.0788 11.2423 25.0211C11.2423 24.9955 11.3321 24.9314 11.4475 24.8865C11.5629 24.8416 11.7039 24.7583 11.7616 24.7006C11.8706 24.6108 12.2873 24.2583 12.3834 24.1877C12.4924 24.1044 12.9091 23.5467 12.9091 23.489C12.9091 23.4441 12.954 23.3992 13.0052 23.38C13.1655 23.3159 13.1142 23.1749 12.8322 22.8864C12.6783 22.7325 12.4155 22.4441 12.236 22.2453C11.9475 21.9184 11.6911 21.7774 11.6911 21.944C11.6911 22.1043 10.6718 23.1492 10.3641 23.2967C9.9538 23.4954 9.28068 23.4505 8.83835 23.1877C8.53064 23.0082 8.29986 22.8031 8.29345 22.6941C8.29345 22.662 8.25499 22.5979 8.2037 22.553C8.15883 22.5018 8.0819 22.2646 8.03703 22.0274C7.99216 21.7902 7.93446 21.5594 7.90882 21.5274C7.88317 21.4889 7.80625 21.1555 7.74214 20.7709C7.67804 20.3927 7.60752 20.085 7.58188 20.085C7.55623 20.085 7.50495 19.8478 7.46008 19.5529C7.4152 19.2644 7.35751 18.9952 7.33186 18.9631C7.30622 18.9247 7.24853 18.7003 7.20365 18.4631C7.1139 17.9759 6.95364 17.7515 6.6267 17.681C6.52413 17.6554 6.43438 17.6169 6.43438 17.5977C6.43438 17.572 6.24847 17.4951 6.01769 17.431C5.78691 17.3669 5.601 17.2899 5.601 17.2643C5.601 17.2387 5.46638 17.181 5.2997 17.1425C5.12662 17.0976 4.9343 17.0271 4.86378 16.9822C4.79327 16.9374 4.62018 16.8604 4.47915 16.8156C4.33812 16.7707 4.2099 16.713 4.19067 16.6938C4.17144 16.6681 3.97912 16.5976 3.76116 16.5271C3.53679 16.463 3.35729 16.3925 3.35729 16.3668C3.35729 16.3476 3.23549 16.2963 3.08164 16.2578C2.7547 16.1681 2.24185 15.7129 2.10723 15.3796C2.04953 15.245 2.01107 14.9501 2.01107 14.6552C2.01107 13.918 2.2098 13.5846 2.94061 13.0846C3.08164 12.9884 3.22908 12.9051 3.27396 12.9051C3.31242 12.9051 3.38935 12.8666 3.43422 12.8218C3.4791 12.7769 3.7227 12.6294 3.9663 12.4884C4.21631 12.3538 4.4471 12.2063 4.49197 12.1679C4.53043 12.123 4.65865 12.0525 4.78045 12.0076C4.89584 11.9563 5.00482 11.8986 5.02405 11.873C5.04328 11.8538 5.15226 11.7832 5.27406 11.7191C5.39586 11.6614 5.52408 11.5845 5.56254 11.5525C5.601 11.514 5.78691 11.3922 5.97282 11.2768C6.54336 10.9114 6.54336 10.9242 6.59465 9.76391C6.62029 9.19978 6.66516 8.75745 6.69721 8.77668C6.72927 8.79591 6.75491 8.55872 6.75491 8.2446C6.75491 7.93689 6.78696 7.34712 6.81902 6.93043C6.86389 6.28296 6.89594 6.14192 7.06262 5.85986C7.29981 5.44317 7.71009 5.1611 8.19729 5.08418C8.88323 4.97519 9.37684 5.1611 10.0371 5.78934C10.3 6.03935 10.8385 6.51374 11.1654 6.7958C11.2872 6.89196 11.5116 7.09069 11.659 7.23173C11.8129 7.37276 12.0437 7.57149 12.1719 7.68047C12.3001 7.78304 12.4988 7.94971 12.6078 8.04587C12.736 8.16126 12.877 8.22537 13.0117 8.22537C13.2617 8.22537 14.1976 8.03946 14.2874 7.96894C14.3258 7.9433 14.5694 7.87919 14.8323 7.83432C15.0951 7.78945 15.3259 7.73175 15.3451 7.71252C15.3643 7.68688 15.64 7.61636 15.9541 7.55225C16.2746 7.48815 16.5439 7.41122 16.5631 7.39199C16.5824 7.36635 16.7939 7.30865 17.0375 7.27019C17.5311 7.18685 18.1273 7.23173 18.2619 7.36635C18.3068 7.41763 18.3773 7.45609 18.4158 7.45609C18.4542 7.45609 18.5953 7.55866 18.7363 7.68047C19.0312 7.94971 19.1081 7.95612 19.1658 7.74457C19.1851 7.65482 19.2299 7.58431 19.2556 7.58431C19.2876 7.58431 19.3581 7.43686 19.4158 7.26378C19.4735 7.08428 19.544 6.94325 19.5697 6.94325C19.621 6.94325 19.8325 6.37912 19.8325 6.23808C19.8261 6.08423 19.6274 5.89191 19.3389 5.7637C19.1851 5.69318 19.0633 5.62267 19.0633 5.59702C19.0633 5.50086 18.1465 5.3406 17.6145 5.3406C17.0503 5.3406 15.9541 5.50086 15.8259 5.59702C15.7874 5.62908 15.4861 5.69959 15.1528 5.7637C14.8194 5.8278 14.531 5.89832 14.5117 5.92396C14.4925 5.94961 14.2553 6.01371 13.9861 6.07141C13.454 6.17398 13.2809 6.14833 13.095 5.93678C13.0373 5.87268 12.8642 5.71882 12.7168 5.59702C12.5629 5.47522 12.3321 5.27008 12.1975 5.14828C11.9795 4.94314 11.4667 4.4944 11.0757 4.15464C10.7102 3.84052 10.0884 3.44947 9.79353 3.3469C9.6525 3.29562 9.52429 3.23151 9.49864 3.19946C9.45377 3.13535 8.06908 3.08407 7.76778 3.14177Z" fill="#264065"/>
<path d="M44.8213 3.14176C44.7187 3.15458 44.6418 3.19946 44.6418 3.23151C44.6418 3.26357 44.5905 3.28921 44.52 3.28921C44.2956 3.28921 43.5327 3.74436 43.0327 4.18669C42.975 4.23798 42.834 4.35337 42.7314 4.44312C42.5327 4.60338 42.2057 4.89827 41.5583 5.49445C41.0262 5.97525 40.93 6.03935 40.6223 6.08423C40.3403 6.12269 39.5133 6.0073 39.5133 5.91755C39.5133 5.89191 39.2633 5.82139 38.9556 5.75729C38.6414 5.69318 38.3786 5.62266 38.3594 5.59702C38.3081 5.52009 36.8849 5.3406 36.3336 5.3406C35.5836 5.3406 34.8592 5.59702 34.3976 6.02653L34.231 6.18039L34.3528 6.52656C34.4169 6.71888 34.4938 6.87914 34.5194 6.87914C34.5451 6.87914 34.6156 7.02017 34.6797 7.19967C34.7438 7.37276 34.8143 7.5202 34.84 7.5202C34.8656 7.5202 34.9169 7.60354 34.9554 7.71252C35.0259 7.93048 35.1733 7.96253 35.2951 7.78945C35.34 7.72534 35.481 7.61636 35.6028 7.54584C35.7246 7.48174 35.8592 7.39199 35.9041 7.34711C36.0516 7.21249 36.5708 7.17403 37.0773 7.26378C37.3401 7.30224 37.5709 7.35994 37.5901 7.38558C37.6093 7.41122 37.885 7.48815 38.1991 7.54584C38.5196 7.60995 38.8081 7.68047 38.8402 7.71252C38.8786 7.73816 39.1094 7.79586 39.353 7.84073C39.603 7.8856 39.8338 7.9433 39.8659 7.97535C39.9813 8.0651 41.0903 8.2446 41.2634 8.19972C41.3531 8.18049 41.5134 8.08433 41.6096 7.99459C41.7057 7.90484 41.9429 7.69329 42.1352 7.52661C42.3211 7.36635 42.5519 7.16121 42.6481 7.07787C42.7378 6.99453 42.9686 6.7958 43.1609 6.62913C43.3468 6.46886 43.584 6.26372 43.6802 6.17397C44.8213 5.12264 45.1546 4.96237 45.9559 5.09058C46.379 5.1611 46.5265 5.23803 46.8791 5.5842C47.1996 5.89832 47.2701 6.13551 47.3086 6.9753C47.3278 7.35994 47.3663 7.73816 47.3983 7.80868C47.4304 7.87919 47.4817 8.59718 47.5201 9.40491C47.5906 10.8409 47.597 10.8729 47.7509 11.0204C47.8342 11.0973 47.9689 11.1807 48.0394 11.2063C48.1099 11.2255 48.1676 11.2704 48.1676 11.3025C48.1676 11.3281 48.2381 11.373 48.3214 11.3922C48.4112 11.4114 48.5202 11.4691 48.565 11.5204C48.6163 11.5653 48.7574 11.655 48.8728 11.7191C48.9946 11.7832 49.1099 11.8538 49.1292 11.873C49.1484 11.8922 49.2638 11.9627 49.3856 12.0268C49.5074 12.0845 49.7382 12.2256 49.8985 12.3281C50.0587 12.4307 50.2959 12.5653 50.4305 12.623C50.5587 12.6807 50.6677 12.7448 50.6677 12.7769C50.6677 12.8025 50.7831 12.873 50.9241 12.9372C51.0652 13.0013 51.1806 13.0782 51.1806 13.1102C51.1806 13.1359 51.2254 13.1615 51.2767 13.1615C51.4114 13.1615 52.0139 13.7769 52.0139 13.9116C52.0139 13.9757 52.0588 14.1103 52.1101 14.2129C52.2191 14.418 52.2383 15.0206 52.1422 15.0206C52.1101 15.0206 52.0781 15.0719 52.0781 15.136C52.0781 15.3027 51.9114 15.6168 51.7319 15.7963C51.4049 16.1168 51.3344 16.1617 51.0716 16.245C50.9177 16.2835 50.7959 16.3412 50.7959 16.3668C50.7959 16.3925 50.6164 16.463 50.3985 16.5271C50.1741 16.5976 49.9818 16.6681 49.9626 16.6938C49.9433 16.713 49.8151 16.7707 49.6741 16.8156C49.533 16.8604 49.36 16.9374 49.2894 16.9822C49.2189 17.0271 49.0266 17.0976 48.8599 17.1425C48.6868 17.181 48.5522 17.2387 48.5522 17.2643C48.5522 17.2899 48.3663 17.3669 48.1355 17.4246C47.9048 17.4887 47.7189 17.5592 47.7189 17.5912C47.7189 17.6169 47.6355 17.6554 47.5329 17.681C47.1675 17.7579 47.0073 17.9887 46.9111 18.5657C46.8598 18.8541 46.7957 19.1362 46.7637 19.1939C46.7316 19.2452 46.6675 19.5208 46.6226 19.8029C46.5778 20.0786 46.5265 20.3222 46.5008 20.3414C46.4752 20.3606 46.4047 20.6619 46.3406 21.0145C46.2829 21.3671 46.2059 21.6812 46.1803 21.7197C46.1547 21.7517 46.1162 21.912 46.0906 22.0658C46.02 22.5402 45.7252 22.9441 45.2572 23.2262C44.8854 23.4505 44.1738 23.4826 43.7763 23.2903C43.4622 23.1364 43.0391 22.7774 43.0391 22.6556C43.0391 22.6172 43.0135 22.5851 42.975 22.5851C42.943 22.5851 42.8147 22.4505 42.6865 22.2774C42.366 21.8607 42.3147 21.8415 42.0968 22.0851C42.0006 22.1941 41.7762 22.4377 41.5967 22.6172C41.4236 22.7966 41.2121 23.021 41.1288 23.1044L40.9877 23.271L41.2249 23.5467C41.4557 23.8095 42.1609 24.5147 42.3981 24.7198C42.4622 24.7711 42.5711 24.8352 42.6481 24.8609C42.7186 24.8801 42.8212 24.9442 42.8724 24.9955C42.975 25.0916 43.6161 25.2775 43.8533 25.2775C43.9366 25.2775 44.0007 25.3032 44.0007 25.3417C44.0007 25.3801 44.1738 25.4058 44.3853 25.4058C44.5969 25.4058 44.77 25.3801 44.77 25.3417C44.77 25.3032 44.8469 25.2775 44.9367 25.2775C45.1738 25.2775 45.988 25.0724 45.988 25.0147C45.988 24.9891 46.0906 24.9314 46.2124 24.8929C46.3342 24.8545 46.4367 24.7968 46.4367 24.7647C46.4367 24.7326 46.4944 24.6942 46.5585 24.6685C46.7637 24.6044 47.4111 23.9185 47.5394 23.63C47.6035 23.4826 47.6868 23.3415 47.7189 23.3223C47.7509 23.3031 47.8086 23.1236 47.8535 22.9185C47.8983 22.7197 47.956 22.5402 47.9753 22.521C48.0009 22.5018 48.0714 22.2133 48.1355 21.8799C48.1996 21.5466 48.2702 21.2389 48.2958 21.2068C48.3214 21.1684 48.3791 20.9119 48.424 20.6299C48.4625 20.3478 48.5202 20.085 48.5458 20.0529C48.565 20.0145 48.6163 19.835 48.6484 19.6426C48.6868 19.4503 48.7574 19.2772 48.8087 19.2452C49.1676 19.0657 49.4561 18.9439 49.7254 18.867C49.892 18.8221 50.0267 18.7644 50.0267 18.7323C50.0267 18.7067 50.1228 18.6618 50.2382 18.6426C50.3472 18.6169 50.5908 18.5272 50.7703 18.4439C50.9498 18.3605 51.187 18.2708 51.296 18.2515C51.4114 18.2259 51.5011 18.1874 51.5011 18.1682C51.5011 18.1426 51.6614 18.072 51.8537 18.0079C52.046 17.9502 52.2063 17.8733 52.2063 17.8477C52.2063 17.8156 52.2896 17.7579 52.3922 17.713C52.8281 17.5336 53.6358 16.604 53.8025 16.0912C53.8474 15.963 53.9115 15.8412 53.9435 15.8219C54.0205 15.7706 54.0205 13.6423 53.9371 13.4949C53.9051 13.4372 53.8346 13.2833 53.7769 13.1615C53.5076 12.5397 53.0845 12.0525 52.4435 11.6294C52.2255 11.4884 52.0204 11.3473 51.9819 11.3217C51.9498 11.2896 51.796 11.2127 51.6485 11.1486C51.4947 11.0781 51.3729 11.0076 51.3729 10.9819C51.3729 10.9563 51.2575 10.8858 51.1165 10.8217C50.9754 10.7576 50.86 10.687 50.86 10.6614C50.86 10.6293 50.7895 10.5909 50.7062 10.5716C50.6164 10.5524 50.5075 10.4947 50.4626 10.4434C50.4113 10.3986 50.2703 10.3088 50.1549 10.2447C50.0331 10.1806 49.9177 10.1101 49.8985 10.0908C49.8792 10.0652 49.7895 10.0011 49.6933 9.93699C49.5651 9.85366 49.5138 9.77032 49.5138 9.6357C49.5138 9.53313 49.4882 9.43697 49.4625 9.41774C49.4305 9.3985 49.3728 8.68052 49.3279 7.82791C49.283 6.96889 49.2253 6.21244 49.1933 6.14192C49.1676 6.07141 49.1035 5.83421 49.0587 5.60984C49.0202 5.38547 48.9497 5.16751 48.9112 5.12905C48.8728 5.08417 48.7958 4.96878 48.7445 4.8598C48.6356 4.64825 48.5843 4.57774 48.2317 4.21874C47.8471 3.8277 47.6612 3.68666 47.424 3.60974C47.3022 3.56486 47.206 3.51358 47.206 3.48794C47.206 3.45588 47.0714 3.39819 46.9047 3.35331C46.7316 3.30203 46.5778 3.23792 46.5585 3.20587C46.5137 3.14176 45.1161 3.08407 44.8213 3.14176Z" fill="#264065"/>
<path d="M28.2178 17.1424C28.0832 17.1745 27.9165 17.2514 27.8396 17.3091C27.096 17.9181 27.0511 18.1168 27.1537 20.0785C27.2114 21.2003 27.2114 21.6619 27.1473 22.2196C27.1088 22.6107 27.0511 22.9633 27.0191 23.0017C26.9934 23.0338 26.9357 23.2325 26.8908 23.4312C26.846 23.6364 26.7883 23.8159 26.7562 23.8351C26.7306 23.8543 26.6537 24.0274 26.596 24.2197C26.5318 24.4121 26.4613 24.5723 26.4293 24.5723C26.4036 24.5723 26.3588 24.6364 26.3395 24.7134C26.3139 24.7967 26.2241 24.9505 26.1408 25.0659C26.0575 25.1749 25.9869 25.2967 25.9869 25.3352C25.9869 25.3672 25.9357 25.4377 25.8716 25.4826C25.801 25.5275 25.7369 25.598 25.7241 25.6429C25.6857 25.7455 25.0574 26.3993 24.6343 26.7712C24.442 26.9378 24.2433 27.1173 24.192 27.1622C24.1407 27.2071 24.0253 27.284 23.9356 27.3289C23.8458 27.3737 23.7625 27.4314 23.7432 27.4507C23.6599 27.5532 23.2176 27.8417 22.8137 28.0661C22.5701 28.2007 22.3521 28.3353 22.3329 28.361C22.3137 28.3802 22.1919 28.4379 22.0637 28.4892C21.929 28.5341 21.8201 28.5918 21.8201 28.6174C21.8201 28.6495 21.6598 28.72 21.4675 28.7777C21.2752 28.8418 21.1149 28.9123 21.1149 28.9315C21.1149 28.9572 20.9354 29.0277 20.7174 29.0918C20.4931 29.1623 20.3008 29.2328 20.2815 29.2585C20.2623 29.2777 20.1341 29.3354 19.993 29.3739C19.852 29.4187 19.6148 29.5085 19.4674 29.579C19.3135 29.6431 19.1661 29.7008 19.1404 29.7008C19.1084 29.7008 18.9994 29.7713 18.8968 29.8611C18.7943 29.9508 18.6917 30.0213 18.666 30.0213C18.6404 30.0213 18.5699 30.1175 18.5122 30.2265C18.4545 30.3419 18.3776 30.4572 18.3455 30.4765C18.1917 30.579 18.1596 31.5599 18.1788 36.2396L18.1981 41.1437L18.3904 41.4899C18.6019 41.8617 19.1853 42.4899 19.3904 42.554C19.4546 42.5797 19.5122 42.6181 19.5122 42.6438C19.5122 42.6694 19.6276 42.7464 19.7687 42.8105C19.9097 42.8746 20.0251 42.9451 20.0251 42.9771C20.0251 43.0028 20.1725 43.0733 20.3456 43.1374C20.5251 43.2015 20.6662 43.272 20.6662 43.2913C20.6662 43.3169 20.788 43.3682 20.9418 43.4131C21.0893 43.4579 21.2688 43.5284 21.3393 43.5733C21.4098 43.6182 21.6021 43.6887 21.7752 43.74C21.9419 43.7849 22.0765 43.8426 22.0765 43.8618C22.0765 43.8874 22.3009 43.9644 22.5765 44.0285C22.8458 44.0862 23.0829 44.1631 23.1022 44.1887C23.1214 44.2144 23.3971 44.2849 23.7112 44.3426C24.0317 44.4067 24.3202 44.4772 24.3522 44.5093C24.3907 44.5349 24.6856 44.5926 25.0125 44.6375C25.3331 44.6824 25.6023 44.74 25.6023 44.7657C25.6023 44.7913 26.0831 44.8619 26.6793 44.926C27.2691 44.9901 27.7755 45.067 27.8076 45.0926C27.8973 45.1696 33.1412 45.1631 33.2822 45.0926C33.3399 45.0606 33.763 44.9837 34.2246 44.926C34.6797 44.8683 35.0708 44.7977 35.09 44.7721C35.1092 44.74 35.2246 44.6952 35.3464 44.6695C35.5708 44.6247 36.3785 44.2657 36.4362 44.1823C36.4555 44.1631 36.5708 44.0926 36.6926 44.0285C36.9298 43.9067 37.6029 43.2592 37.8145 42.9451C37.885 42.8425 38.0004 42.6887 38.0709 42.5925C38.4107 42.1502 38.7248 41.3296 38.8402 40.5988C38.9299 40.0026 38.9812 39.8295 39.071 39.8295C39.103 39.8295 39.1287 39.7911 39.1287 39.7462C39.1287 39.7013 39.1864 39.5988 39.2569 39.5218C39.3274 39.4449 39.3851 39.368 39.3851 39.3423C39.3851 39.3167 39.4684 39.1372 39.571 38.9385C39.6736 38.7397 39.7761 38.4769 39.8018 38.3551C39.8274 38.2333 39.8723 38.1179 39.8979 38.0987C39.9749 38.0538 40.1095 36.7653 40.0582 36.5794C40.0197 36.4191 40.1415 35.9832 40.2249 35.9832C40.289 35.9832 40.7313 35.0729 40.7313 34.9382C40.7313 34.8806 40.757 34.8293 40.789 34.8293C40.9557 34.8293 41.0454 33.3484 40.9172 32.592C40.8659 32.2458 40.8724 32.1304 40.9685 31.8676C41.0262 31.7009 41.0967 31.5599 41.1288 31.5599C41.1544 31.5599 41.2057 31.4381 41.2506 31.2842C41.289 31.1368 41.3531 30.9957 41.398 30.9701C41.4942 30.906 41.4942 29.3674 41.3916 29.2456C41.3531 29.1944 41.2826 29.0149 41.2442 28.8482C41.1993 28.6815 41.1416 28.5469 41.116 28.5469C41.0903 28.5469 41.0198 28.4187 40.9621 28.2584C40.898 28.0981 40.8275 27.9699 40.8082 27.9699C40.7826 27.9699 40.68 27.8481 40.5839 27.6943C40.3595 27.3737 39.9108 27.0468 39.5133 26.9378C39.353 26.893 39.1992 26.8353 39.1671 26.8032C39.0838 26.7327 36.6542 26.7391 36.5131 26.8096C36.4555 26.8417 35.9426 26.9186 35.3785 26.9763C34.8143 27.034 34.3271 27.1045 34.2887 27.1366C34.2566 27.1622 33.9938 27.2199 33.7117 27.2584C33.4297 27.3032 33.1348 27.3545 33.0514 27.3737C32.904 27.4058 32.904 27.4058 32.9489 26.9058C32.9745 26.6237 33.0258 26.3609 33.0642 26.3096C33.1604 26.1878 33.1668 22.2773 33.0707 22.2132C33.0322 22.1876 32.9489 21.8863 32.8783 21.5401C32.8142 21.2003 32.7373 20.9183 32.7117 20.9183C32.686 20.9183 32.6476 20.8414 32.6283 20.7388C32.5578 20.4503 32.1796 19.6105 32.0962 19.5528C32.0514 19.5272 32.0129 19.4631 32.0129 19.4118C32.0129 19.3669 31.9744 19.2836 31.936 19.2387C31.8911 19.1938 31.7693 19.0336 31.6731 18.8861C31.3719 18.4438 30.6282 17.7707 30.3397 17.6809C30.2756 17.6553 30.2179 17.6168 30.2179 17.5848C30.2179 17.5591 30.0769 17.4822 29.8974 17.4181C29.7243 17.354 29.5769 17.2835 29.5769 17.2578C29.5769 17.2065 28.8397 17.0719 28.6089 17.0783C28.5255 17.0847 28.346 17.1104 28.2178 17.1424ZM29.3782 19.2451C30.3782 19.9246 31.0129 21.1042 31.2565 22.7453C31.359 23.4569 31.359 25.3159 31.25 26.0147C31.1603 26.6109 30.9103 27.4507 30.6667 27.9956C30.4615 28.4507 30.5128 28.8866 30.7949 29.1431L31.0064 29.3354L32.0065 29.2969C32.7181 29.2777 33.2566 29.22 33.872 29.0982C36.1413 28.6495 36.4619 28.611 37.8658 28.611C38.9235 28.611 38.9428 28.611 39.0966 28.7648C39.353 29.0213 39.5838 29.5982 39.6223 30.0726C39.6736 30.7457 39.7441 30.7073 37.8145 31.0214C35.6413 31.3675 35.5516 31.3932 35.2887 31.7265C35.1028 31.9573 35.1028 32.5022 35.2823 32.7266C35.5516 33.0728 35.7054 33.0984 37.5196 33.0984H39.1928V33.4253C39.1928 33.7779 38.9812 34.5921 38.8402 34.7844C38.7312 34.9382 38.5261 34.9831 37.0773 35.1819C35.5836 35.387 35.3913 35.4255 35.1926 35.5601C34.7823 35.8293 34.7182 36.4768 35.0772 36.8294C35.3144 37.073 35.5516 37.1179 36.7888 37.1691C37.3209 37.1884 37.8466 37.2204 37.9684 37.2397C38.1671 37.2717 38.1799 37.2845 38.1414 37.4768C38.0645 37.8999 37.8081 38.4448 37.5581 38.7205C37.3145 38.9897 37.2696 39.009 36.7568 39.0987C36.4555 39.15 35.9811 39.2398 35.699 39.291C35.4169 39.3423 35.1156 39.4321 35.0259 39.5026C34.6669 39.7654 34.622 40.3488 34.9361 40.7206C35.1156 40.9322 35.4233 41.0155 36.2631 41.086C36.6862 41.1181 36.7568 41.1373 36.7247 41.227C36.6285 41.4835 36.0836 42.2143 35.8593 42.3938C35.3208 42.8169 34.2053 43.163 32.936 43.2977C31.9873 43.3938 28.564 43.3297 27.5896 43.2015C26.3716 43.0348 24.6087 42.6951 23.9548 42.4963C23.7881 42.4451 23.3458 42.3104 22.974 42.2015C22.6022 42.0861 22.1278 41.9258 21.9098 41.8425C21.4418 41.663 20.4995 41.1437 20.2943 40.9578C19.9482 40.6501 19.961 40.8168 19.961 36.0152C19.961 33.0792 19.9866 31.5086 20.0251 31.4252C20.0892 31.3099 20.4546 31.1111 20.7944 31.015C21.0508 30.938 22.256 30.4124 22.8714 30.1047C25.2561 28.9059 27.205 27.1237 28.1281 25.2903C28.8397 23.8736 29.0448 22.5979 28.9486 20.1939C28.923 19.5336 28.9294 18.9951 28.9551 18.9951C28.9807 18.9951 29.173 19.1105 29.3782 19.2451Z" fill="#264065"/>
<path d="M10.2166 27.5659C10.0692 27.6172 9.76786 27.9185 9.76786 28.0147C9.76786 28.0595 9.74222 28.098 9.70375 28.098C9.6717 28.098 9.63965 28.2583 9.63965 28.4506C9.63965 28.6429 9.6717 28.8032 9.70375 28.8032C9.74222 28.8032 9.76786 28.8416 9.76786 28.8929C9.76786 28.9378 9.87684 29.066 10.0115 29.1622L10.2487 29.3481L12.3962 29.3801L14.5438 29.4122L14.563 35.9959L14.5758 42.586H12.5693C10.5756 42.586 10.5564 42.586 10.2358 42.7398C9.83838 42.9321 9.63965 43.2398 9.63965 43.6501C9.63965 43.804 9.66529 43.9322 9.70375 43.9322C9.73581 43.9322 9.78068 44.0027 9.80632 44.086C9.83197 44.1886 9.95377 44.2848 10.2102 44.4066L10.5756 44.5732H12.5693C13.6719 44.5732 14.6335 44.5476 14.7168 44.5155C14.8002 44.4835 15.0181 44.4066 15.1976 44.3553C15.563 44.2399 16.1272 43.7655 16.2105 43.4963C16.2297 43.4193 16.2746 43.3552 16.3067 43.3552C16.4862 43.3552 16.5054 42.3616 16.4862 35.7266L16.4669 28.9634L16.2618 28.6109C15.999 28.1685 15.8002 27.9506 15.5438 27.8416C15.4348 27.7967 15.3451 27.739 15.3451 27.7134C15.3451 27.5723 14.5694 27.5211 12.5052 27.5275C11.3 27.5275 10.2679 27.5467 10.2166 27.5659Z" fill="#264065"/>
</svg>
