<svg width="40" height="41" viewBox="0 0 40 41" fill="none" xmlns="http://www.w3.org/2000/svg">
<path d="M37.775 0.333008H2.29379C1.04724 0.333008 0.00195312 1.37827 0.00195312 2.62482V38.0412C0.00195312 39.2877 1.04724 40.333 2.29379 40.333H37.7036C38.9502 40.333 39.9955 39.2877 39.9955 38.0412V2.62482C40.0604 1.37827 39.0151 0.333008 37.7686 0.333008H37.775ZM1.70947 7.00723H38.4308V33.7172H1.70947V7.00723ZM2.30029 2.03403H37.7101C38.0348 2.03403 38.3659 2.29373 38.3659 2.68977V5.37116H1.70947V2.68977C1.70947 2.30022 1.96917 2.03403 2.30029 2.03403ZM37.7815 38.6904H2.30029C1.97566 38.6904 1.64454 38.4307 1.64454 38.0347V35.3533H38.3659V38.0347C38.3659 38.4242 38.1062 38.6904 37.775 38.6904H37.7815Z" fill="#264065"/>
<path d="M4.98133 2.81982H3.34521V4.4559H4.98133V2.81982Z" fill="#264065"/>
<path d="M8.31871 2.81982H6.68262V4.4559H8.31871V2.81982Z" fill="#264065"/>
<path d="M11.6556 2.81982H10.0195V4.4559H11.6556V2.81982Z" fill="#264065"/>
<path d="M36.6649 2.81982H35.0288V4.4559H36.6649V2.81982Z" fill="#264065"/>
<path d="M33.3861 2.81982H25.8613V4.4559H33.3861V2.81982Z" fill="#264065"/>
<path d="M4.98133 36.2039H3.34521V37.8399H4.98133V36.2039Z" fill="#264065"/>
<path d="M8.31871 36.2039H6.68262V37.8399H8.31871V36.2039Z" fill="#264065"/>
<path d="M11.6556 36.2039H10.0195V37.8399H11.6556V36.2039Z" fill="#264065"/>
<path d="M36.6649 36.2039H35.0288V37.8399H36.6649V36.2039Z" fill="#264065"/>
<path d="M33.3861 36.2039H25.8613V37.8399H33.3861V36.2039Z" fill="#264065"/>
<path d="M33.1263 16.1746L28.4127 11.4611C28.2829 11.3313 28.0232 11.2014 27.8219 11.2014H24.2186C23.7577 11.2014 23.3681 11.591 23.3681 12.0519C23.3681 13.8828 21.8619 15.3891 20.031 15.3891C18.2001 15.3891 16.6939 13.8828 16.6939 12.0519C16.6939 11.591 16.2978 11.2014 15.8433 11.2014H12.2465C12.0518 11.2014 11.7856 11.2664 11.6557 11.4611L6.9422 16.1746C6.61757 16.4992 6.61757 17.0251 6.9422 17.3498L9.29896 19.7065C9.62358 20.0311 10.1495 20.0311 10.4741 19.7065L11.7207 18.46V28.6726C11.7207 29.1336 12.1102 29.5231 12.5712 29.5231H27.5622C28.0232 29.5231 28.4127 29.1336 28.4127 28.6726V18.46L29.6593 19.7065C29.9839 20.0311 30.5098 20.0311 30.8344 19.7065L33.1912 17.3498C33.4509 17.0251 33.4509 16.4992 33.1263 16.1746ZM30.1787 17.9406L28.1466 15.9084C27.8869 15.6487 27.5557 15.5838 27.2311 15.7137C26.9065 15.8435 26.7052 16.1746 26.7052 16.4992V24.5499H22.5176C22.0566 24.5499 21.6671 24.9394 21.6671 25.4004C21.6671 25.8614 22.0566 26.2509 22.5176 26.2509H26.7052V27.887H13.3502V23.6994H17.5379C17.9989 23.6994 18.3884 23.3034 18.3884 22.8489C18.3884 22.3944 17.9989 21.9984 17.5379 21.9984H13.3502V16.4343C13.3502 16.1097 13.1555 15.7786 12.8244 15.6487C12.4997 15.5189 12.1686 15.5838 11.9089 15.8435L9.87678 17.9406L8.70165 16.759L12.5647 12.8959H15.1162C15.5057 15.2527 17.6028 17.0836 20.0245 17.0836C22.4462 17.0836 24.5432 15.2527 24.9328 12.8959H27.4194L31.2824 16.759L30.1722 17.9406H30.1787Z" fill="#264065"/>
<path d="M7.27338 19.7713C6.94876 19.4467 6.42287 19.4467 6.09825 19.7713L3.61163 22.2579C3.28701 22.5825 3.28701 23.1084 3.61163 23.4331L6.09825 25.9196C6.42287 26.2443 6.94876 26.2443 7.27338 25.9196C7.59801 25.595 7.59801 25.0691 7.27338 24.7445L5.37758 22.8487L7.27338 20.9529C7.59801 20.6283 7.59801 20.1024 7.27338 19.7713Z" fill="#264065"/>
<path d="M36.4638 22.2579L33.9772 19.7713C33.6526 19.4467 33.1267 19.4467 32.8021 19.7713C32.4774 20.0959 32.4774 20.6218 32.8021 20.9529L34.6978 22.8487L32.8021 24.7445C32.4774 25.0691 32.4774 25.595 32.8021 25.9196C33.1267 26.2443 33.6526 26.2443 33.9772 25.9196L36.4638 23.4331C36.7884 23.1084 36.7884 22.5825 36.4638 22.2579Z" fill="#264065"/>
</svg>
